# xmcd
#
# Track frame offsets: 
#        150
#        24052
#        54377
#        80946
#        101840
#        125346
#        146922
#        169759
#        187307
#        213236
#
# Disc length: 3193 seconds
#
# Revision: 2
# Processed by: cddbd v1.5.2PL0 Copyright (c) Steve Scherf et al.
# Submitted via: ExactAudioCopy v1.0b1
#
DISCID=900c770a
DTITLE=Tri Continental - Let's Play
DYEAR=2003
DGENRE=Blues
TTITLE0=Hilalao (Let's Play)
TTITLE1=Here And Gone
TTITLE2=Six Billion
TTITLE3=Kapoy
TTITLE4=With A Little Help From My Friends
TTITLE5=Keep On Walking
TTITLE6=Little Green Men
TTITLE7=Miss Mae
TTITLE8=Andeha
TTITLE9=Tibetian Rose
EXTD=
EXTT0=
EXTT1=
EXTT2=
EXTT3=
EXTT4=
EXTT5=
EXTT6=
EXTT7=
EXTT8=
EXTT9=
PLAYORDER=
